<?xml version="1.0" encoding="utf-8"?>
<!-- Generator: Adobe Illustrator 15.1.0, SVG Export Plug-In . SVG Version: 6.00 Build 0)  -->
<!DOCTYPE svg PUBLIC "-//W3C//DTD SVG 1.1//EN" "http://www.w3.org/Graphics/SVG/1.1/DTD/svg11.dtd">
<svg version="1.1" id="Layer_1" xmlns="http://www.w3.org/2000/svg" xmlns:xlink="http://www.w3.org/1999/xlink" x="0px" y="0px"
	 width="344px" height="45px" viewBox="0 0 344 45" enable-background="new 0 0 344 45" xml:space="preserve">
<g>
	<path fill="#FFFFFF" d="M42.41,5.58c-3.55,0.25-4.91,1.11-5.21,3.66c-0.18,1.67-0.29,4.33-0.29,10.04v5.079
		c0,7.311-1.07,12.58-4.5,16.357C29.69,43.7,25.72,45,21.82,45c-3.43,0-6.86-0.87-9.47-2.97c-3.55-2.86-5.2-7.5-5.2-14.761V11.84
		c0-5.58-0.48-5.83-5.15-6.26V3.84h15.32v1.74c-4.67,0.31-5.14,0.68-5.14,6.26v14.07c0,9.98,3.78,15.68,11.12,15.68
		c8.52,0,11.18-7.439,11.18-17.66V19.28c0-5.71-0.18-8.312-0.41-10.23c-0.36-2.42-1.6-3.16-5.74-3.47V3.84h14.08V5.58z"/>
	<path fill="#FFFFFF" d="M74.09,44.13V42.4c4.79-0.5,5.03-0.812,4.97-7.381L78.88,9.73h-0.23L64.21,43.7h-1.18L49.78,10.6h-0.12
		l-0.89,17.66c-0.23,5.09-0.23,7.811-0.18,10.29c0.12,2.98,1.54,3.41,5.45,3.851v1.729H40.25V42.4c3.43-0.44,4.62-1.12,5.03-3.721
		c0.3-2.173,0.65-4.899,1.13-11.343l0.82-12.9c0.54-8.06,0.24-8.3-5.14-8.86V3.84h9.7l13.49,30.99L78.94,3.84H89v1.74
		c-5.2,0.49-5.62,0.62-5.44,7l0.59,22.439c0.18,6.567-1.64,6.881,3.5,7.381v1.729L74.09,44.13L74.09,44.13z"/>
	<path fill="#FFFFFF" d="M104.03,29.26c-1.24,0.68-4.08,1.98-5.32,2.6c-2.31,1.11-3.61,2.291-3.61,4.531
		c0,3.219,2.37,4.771,4.2,4.771c1.54-0.062,3.61-1.12,4.73-2.229V29.26z M108.35,44.88c-0.88,0-2.13-0.56-2.78-1.18
		c-0.77-0.87-1.12-1.74-1.42-2.79c-2.36,1.67-5.2,3.97-6.98,3.97c-4.2,0-7.1-3.66-7.1-7.569c0-3.027,1.54-4.951,4.79-6.131
		c3.55-1.24,7.87-2.92,9.17-4.029v-1.117c0-4.46-2.01-7-4.97-7c-1.18,0-2.07,0.49-2.66,1.24c-0.77,0.8-1.3,2.17-1.77,4.03
		c-0.24,1.053-0.89,1.49-1.72,1.49c-1.06,0-2.6-1.24-2.6-2.67c0-0.93,0.77-1.61,1.89-2.48c1.66-1.24,5.5-3.66,8.88-4.34
		c1.77,0,3.55,0.56,4.85,1.68c2.07,1.79,2.66,4.33,2.66,7.56V37.07c0,2.779,1.06,3.711,2.07,3.711c0.71,0,1.54-0.301,2.13-0.682
		l0.59,1.608L108.35,44.88z"/>
	<path fill="#FFFFFF" d="M128.62,24.359c-1.12-3.659-3.19-6.143-6.09-6.143c-2.25,0-3.85,1.86-3.85,4.28
		c0,2.729,2.37,4.22,5.03,5.394c4.44,1.92,7.46,4.146,7.46,8.43c0,5.64-5.03,8.56-9.76,8.56c-3.02,0-5.74-1.18-6.81-2.11
		c-0.41-0.869-0.94-5.08-0.94-7.31l1.53-0.31c1.07,4.09,3.73,7.68,7.28,7.68c2.19,0,4.2-1.73,4.2-4.34c0-2.73-1.71-4.21-4.67-5.641
		c-3.55-1.729-7.4-3.779-7.4-8.553c0-4.34,2.55-8,7.99-8c2.43-0.06,5.03,0.56,6.27,1.05c0.47,1.43,1.12,5.09,1.3,6.639
		L128.62,24.359z"/>
	<path fill="#FFFFFF" d="M148.38,24.359c-1.12-3.659-3.19-6.143-6.09-6.143c-2.25,0-3.85,1.86-3.85,4.28
		c0,2.729,2.37,4.22,5.03,5.394c4.44,1.92,7.45,4.146,7.45,8.43c0,5.64-5.02,8.56-9.76,8.56c-3.01,0-5.74-1.18-6.8-2.11
		c-0.41-0.869-0.95-5.08-0.95-7.31l1.54-0.31c1.07,4.09,3.73,7.68,7.28,7.68c2.19,0,4.2-1.73,4.2-4.34c0-2.73-1.72-4.21-4.68-5.641
		c-3.54-1.729-7.39-3.779-7.39-8.553c0-4.34,3.55-8,8.99-8c2.43-0.06,4.03,0.56,5.27,1.05c0.47,1.43,1.12,5.09,1.3,6.639
		L148.38,24.359z"/>
	<path fill="#FFFFFF" d="M169.89,10.97h-0.11c-1.9,5.33-3.79,10.72-5.57,15.812h10.89L169.89,10.97z M175.689,44.13V42.4
		c3.729-0.5,4.261-0.99,3.49-3.41c-0.771-2.42-1.949-5.771-3.25-9.551h-12.603c-0.95,2.791-1.84,5.391-2.61,8
		c-1.3,3.897-0.77,4.521,3.67,4.961v1.729h-12.84V42.4c3.73-0.562,4.56-0.934,6.63-6.394l12.25-32.54l1.83-0.56
		c3.673,10.66,7.634,22.438,11.423,33.229c1.891,5.329,2.657,5.892,6.51,6.261v1.729h-14.5V44.13L175.689,44.13z"/>
	<path fill="#FFFFFF" d="M219.91,44.13v-1.61c3.49-0.369,4.14-0.619,4.14-5.02V27.15c0-4.4-1.479-7.19-5.21-7.19
		c-2.13,0-4.38,1.24-6.619,3.22c0.109,0.75,0.17,1.43,0.17,2.61v12.08c0,3.91,0.539,4.28,3.789,4.649v1.607h-12.66V42.52
		c3.67-0.369,4.201-0.681,4.201-4.771V27.09c0-4.59-1.541-7.13-5.15-7.13c-5.025,0-4.669,1.669-6.447,3.22v14.57
		c0,4.03,0.479,4.4,3.38,4.77v1.61h-12.487v-1.61c3.907-0.369,4.438-0.736,4.438-4.77V24.92c0-3.97-0.184-4.28-3.61-4.84v-1.42
		c2.603-0.5,5.62-1.31,8.224-2.54v5.02c1.25-0.87,2.549-1.99,4.316-3.16c1.54-1,2.96-1.68,4.854-1.68c2.84,0,5.39,1.86,6.566,5.08
		c1.723-1.36,3.434-2.54,4.91-3.47c1.24-0.86,2.78-1.61,4.438-1.61c4.609,0,7.513,3.41,7.513,9.49v11.96
		c0,4.15,0.479,4.4,3.853,4.77v1.61H219.91z"/>
	<path fill="#FFFFFF" d="M248.7,44.13v-1.61c3.43-0.369,3.909-0.736,3.909-4.77V27.46c0-5.08-1.84-7.62-5.799-7.62
		c-2.25,0-4.5,1.17-6.15,3.16v14.75c0,3.96,0.29,4.4,3.779,4.77v1.61H231.9l0.06-1.61c3.55-0.31,4.021-0.68,4.021-4.77V8.18
		c0-3.9-0.107-4.21-4.021-4.59V2.17c2.84-0.44,6.39-1.43,8.7-2.17v20.83c2.07-2.23,5.26-4.53,8.46-4.53
		c4.79-0.06,8.159,3.16,8.159,10.601v10.853c0,4.09,0.421,4.46,3.91,4.771v1.608L248.7,44.13L248.7,44.13z"/>
	<path fill="#FFFFFF" d="M272.51,18.6c-2.66,0-5.26,2.6-6.15,7.62c3.312,0,6.57-0.06,10-0.188c1.062,0,1.424-0.37,1.424-1.24
		c0.06-3.22-1.95-6.19-5.213-6.19L272.51,18.6L272.51,18.6z M282.57,38.859c-3.73,4.897-7.812,6.021-9.641,6.021
		c-7.279,0-11.539-6.2-11.539-13.21c0-4.27,1.479-8.05,3.906-10.84c2.424-2.85,5.62-4.53,8.633-4.53h0.061
		c4.91,0,8.88,4.59,8.88,9.42c0,1.24-0.3,1.74-1.36,1.99c-1.01,0.181-8.4,0.8-15.438,1.05c0.05,8.43,4.67,11.9,8.81,11.9
		c2.37,0,4.61-0.99,6.74-3.1L282.57,38.859z"/>
	<path fill="#FFFFFF" d="M293.84,22.87c1.78-3.1,4.32-6.57,7.16-6.57c2.01,0,3.43,1.61,3.43,3.1c0,1.24-0.77,2.48-1.89,3.04
		c-0.71,0.31-1.24,0.25-1.601-0.13c-0.83-0.93-1.539-1.3-2.479-1.3c-1.54,0-3.431,1.86-4.729,5.33v11.35
		c0,4.094,0.289,4.461,4.853,4.83v1.61h-13.608v-1.61c3.672-0.369,4.078-0.736,4.078-4.83v-12.83c0-4.1-0.29-4.336-3.67-4.836v-1.36
		c2.896-0.5,5.514-1.24,8.354-2.54v6.75L293.84,22.87L293.84,22.87z"/>
	<path fill="#FFFFFF" d="M320.67,24.359c-1.12-3.659-3.189-6.143-6.09-6.143c-4.917,0-3.84,1.86-3.84,4.28
		c0,2.729,2.359,4.22,5.02,5.394c4.44,1.92,7.461,4.146,7.461,8.43c0,5.64-5.031,8.56-9.761,8.56c-3.021,0-5.739-1.18-6.81-2.11
		c-0.41-0.869-0.94-5.08-0.94-7.31l1.54-0.31c1.061,4.09,3.721,7.68,7.27,7.68c2.19,0,4.201-1.73,4.201-4.34
		c0-2.73-1.711-4.21-4.671-5.641c-3.55-1.729-7.399-3.779-7.399-8.553c0-4.34,3.553-8,9-8c2.423-0.06,4.021,0.56,5.263,1.05
		c0.479,1.43,1.13,5.09,1.3,6.639L320.67,24.359z"/>
	<path fill="#FFFFFF" d="M337.98,44.07c-1.01,0.56-1.951,0.81-2.49,0.81c-3.73,0-5.801-2.479-5.801-7.38V19.46h-4.08l-0.229-0.62
		l1.591-1.79h2.719v-4.53l3.854-4.09l0.83,0.12v8.5h6.68c0.54,0.62,0.36,1.98-0.35,2.41h-6.33v15.931c0,5.021,1.95,5.949,3.43,5.949
		c1.48,0,2.844-0.62,3.674-1.05L342,41.9L337.98,44.07z"/>
</g>
</svg>
