<?xml version="1.0" encoding="utf-8"?>
<!-- Generator: Adobe Illustrator 18.1.1, SVG Export Plug-In . SVG Version: 6.00 Build 0)  -->
<svg version="1.1" id="Layer_1" xmlns="http://www.w3.org/2000/svg" xmlns:xlink="http://www.w3.org/1999/xlink" x="0px" y="0px"
	 viewBox="0 0 100 100" enable-background="new 0 0 100 100" xml:space="preserve">
<g>
	<path fill="#FFFFFF" d="M79.6,82.9c-1.4,0-2.7-0.6-3.6-1.5L62.3,67.7c-4.7,3.3-10.3,5-16,5c-15.6,0-28.3-12.7-28.3-28.3
		s12.7-28.3,28.3-28.3c15.6,0,28.3,12.7,28.3,28.3c0,5.7-1.7,11.3-5,16l13.8,13.8c0.9,0.9,1.5,2.2,1.5,3.6
		C84.8,80.6,82.5,82.9,79.6,82.9z M46.2,26.4c-9.9,0-18,8.1-18,18s8.1,18,18,18c9.9,0,18-8.1,18-18S56.1,26.4,46.2,26.4z"/>
</g>
<g>
</g>
<g>
</g>
<g>
</g>
<g>
</g>
<g>
</g>
<g>
</g>
<g>
</g>
<g>
</g>
<g>
</g>
<g>
</g>
<g>
</g>
<g>
</g>
<g>
</g>
<g>
</g>
<g>
</g>
</svg>
